<?xml version="1.0" encoding="utf-8" standalone="no"?>
<!DOCTYPE svg PUBLIC "-//W3C//DTD SVG 1.1//EN"
  "http://www.w3.org/Graphics/SVG/1.1/DTD/svg11.dtd">
<svg xmlns:xlink="http://www.w3.org/1999/xlink" width="620.39952pt" height="454.79952pt" viewBox="0 0 620.39952 454.79952" xmlns="http://www.w3.org/2000/svg" version="1.1">
 <metadata>
  <rdf:RDF xmlns:dc="http://purl.org/dc/elements/1.1/" xmlns:cc="http://creativecommons.org/ns#" xmlns:rdf="http://www.w3.org/1999/02/22-rdf-syntax-ns#">
   <cc:Work>
    <dc:type rdf:resource="http://purl.org/dc/dcmitype/StillImage"/>
    <dc:date>2026-03-21T13:51:15.874408</dc:date>
    <dc:format>image/svg+xml</dc:format>
    <dc:creator>
     <cc:Agent>
      <dc:title>Matplotlib v3.7.5, https://matplotlib.org/</dc:title>
     </cc:Agent>
    </dc:creator>
   </cc:Work>
  </rdf:RDF>
 </metadata>
 <defs>
  <style type="text/css">*{stroke-linejoin: round; stroke-linecap: butt}</style>
 </defs>
 <g id="figure_1">
  <g id="patch_1">
   <path d="M 0 454.79952 
L 620.39952 454.79952 
L 620.39952 -0 
L 0 -0 
z
" style="fill: #ffffff"/>
  </g>
  <g id="axes_1">
   <g id="patch_2">
    <path d="M 26.925 296.896379 
L 608.546548 296.896379 
L 608.546548 7.2 
L 26.925 7.2 
z
" style="fill: #ffffff"/>
   </g>
   <g id="matplotlib.axis_1">
    <g id="xtick_1">
     <g id="line2d_1">
      <path d="M 42.23083 296.896379 
L 42.23083 7.2 
" clip-path="url(#p4d74b45127)" style="fill: none; stroke-dasharray: 2.1,2.1; stroke-dashoffset: 0; stroke: #d7dbe2; stroke-opacity: 0.9; stroke-width: 0.7"/>
     </g>
     <g id="text_1">
      <!-- 89.75 -->
      <g transform="translate(27.916768 311.494817) scale(0.1 -0.1)">
       <defs>
        <path id="DejaVuSans-38" d="M 2034 2216 
Q 1584 2216 1326 1975 
Q 1069 1734 1069 1313 
Q 1069 891 1326 650 
Q 1584 409 2034 409 
Q 2484 409 2743 651 
Q 3003 894 3003 1313 
Q 3003 1734 2745 1975 
Q 2488 2216 2034 2216 
z
M 1403 2484 
Q 997 2584 770 2862 
Q 544 3141 544 3541 
Q 544 4100 942 4425 
Q 1341 4750 2034 4750 
Q 2731 4750 3128 4425 
Q 3525 4100 3525 3541 
Q 3525 3141 3298 2862 
Q 3072 2584 2669 2484 
Q 3125 2378 3379 2068 
Q 3634 1759 3634 1313 
Q 3634 634 3220 271 
Q 2806 -91 2034 -91 
Q 1263 -91 848 271 
Q 434 634 434 1313 
Q 434 1759 690 2068 
Q 947 2378 1403 2484 
z
M 1172 3481 
Q 1172 3119 1398 2916 
Q 1625 2713 2034 2713 
Q 2441 2713 2670 2916 
Q 2900 3119 2900 3481 
Q 2900 3844 2670 4047 
Q 2441 4250 2034 4250 
Q 1625 4250 1398 4047 
Q 1172 3844 1172 3481 
z
" transform="scale(0.015625)"/>
        <path id="DejaVuSans-39" d="M 703 97 
L 703 672 
Q 941 559 1184 500 
Q 1428 441 1663 441 
Q 2288 441 2617 861 
Q 2947 1281 2994 2138 
Q 2813 1869 2534 1725 
Q 2256 1581 1919 1581 
Q 1219 1581 811 2004 
Q 403 2428 403 3163 
Q 403 3881 828 4315 
Q 1253 4750 1959 4750 
Q 2769 4750 3195 4129 
Q 3622 3509 3622 2328 
Q 3622 1225 3098 567 
Q 2575 -91 1691 -91 
Q 1453 -91 1209 -44 
Q 966 3 703 97 
z
M 1959 2075 
Q 2384 2075 2632 2365 
Q 2881 2656 2881 3163 
Q 2881 3666 2632 3958 
Q 2384 4250 1959 4250 
Q 1534 4250 1286 3958 
Q 1038 3666 1038 3163 
Q 1038 2656 1286 2365 
Q 1534 2075 1959 2075 
z
" transform="scale(0.015625)"/>
        <path id="DejaVuSans-2e" d="M 684 794 
L 1344 794 
L 1344 0 
L 684 0 
L 684 794 
z
" transform="scale(0.015625)"/>
        <path id="DejaVuSans-37" d="M 525 4666 
L 3525 4666 
L 3525 4397 
L 1831 0 
L 1172 0 
L 2766 4134 
L 525 4134 
L 525 4666 
z
" transform="scale(0.015625)"/>
        <path id="DejaVuSans-35" d="M 691 4666 
L 3169 4666 
L 3169 4134 
L 1269 4134 
L 1269 2991 
Q 1406 3038 1543 3061 
Q 1681 3084 1819 3084 
Q 2600 3084 3056 2656 
Q 3513 2228 3513 1497 
Q 3513 744 3044 326 
Q 2575 -91 1722 -91 
Q 1428 -91 1123 -41 
Q 819 9 494 109 
L 494 744 
Q 775 591 1075 516 
Q 1375 441 1709 441 
Q 2250 441 2565 725 
Q 2881 1009 2881 1497 
Q 2881 1984 2565 2268 
Q 2250 2553 1709 2553 
Q 1456 2553 1204 2497 
Q 953 2441 691 2322 
L 691 4666 
z
" transform="scale(0.015625)"/>
       </defs>
       <use xlink:href="#DejaVuSans-38"/>
       <use xlink:href="#DejaVuSans-39" x="63.623047"/>
       <use xlink:href="#DejaVuSans-2e" x="127.246094"/>
       <use xlink:href="#DejaVuSans-37" x="159.033203"/>
       <use xlink:href="#DejaVuSans-35" x="222.65625"/>
      </g>
     </g>
    </g>
    <g id="xtick_2">
     <g id="line2d_2">
      <path d="M 118.759981 296.896379 
L 118.759981 7.2 
" clip-path="url(#p4d74b45127)" style="fill: none; stroke-dasharray: 2.1,2.1; stroke-dashoffset: 0; stroke: #d7dbe2; stroke-opacity: 0.9; stroke-width: 0.7"/>
     </g>
     <g id="text_2">
      <!-- 90.00 -->
      <g transform="translate(104.445919 311.494817) scale(0.1 -0.1)">
       <defs>
        <path id="DejaVuSans-30" d="M 2034 4250 
Q 1547 4250 1301 3770 
Q 1056 3291 1056 2328 
Q 1056 1369 1301 889 
Q 1547 409 2034 409 
Q 2525 409 2770 889 
Q 3016 1369 3016 2328 
Q 3016 3291 2770 3770 
Q 2525 4250 2034 4250 
z
M 2034 4750 
Q 2819 4750 3233 4129 
Q 3647 3509 3647 2328 
Q 3647 1150 3233 529 
Q 2819 -91 2034 -91 
Q 1250 -91 836 529 
Q 422 1150 422 2328 
Q 422 3509 836 4129 
Q 1250 4750 2034 4750 
z
" transform="scale(0.015625)"/>
       </defs>
       <use xlink:href="#DejaVuSans-39"/>
       <use xlink:href="#DejaVuSans-30" x="63.623047"/>
       <use xlink:href="#DejaVuSans-2e" x="127.246094"/>
       <use xlink:href="#DejaVuSans-30" x="159.033203"/>
       <use xlink:href="#DejaVuSans-30" x="222.65625"/>
      </g>
     </g>
    </g>
    <g id="xtick_3">
     <g id="line2d_3">
      <path d="M 195.289132 296.896379 
L 195.289132 7.2 
" clip-path="url(#p4d74b45127)" style="fill: none; stroke-dasharray: 2.1,2.1; stroke-dashoffset: 0; stroke: #d7dbe2; stroke-opacity: 0.9; stroke-width: 0.7"/>
     </g>
     <g id="text_3">
      <!-- 90.25 -->
      <g transform="translate(180.97507 311.494817) scale(0.1 -0.1)">
       <defs>
        <path id="DejaVuSans-32" d="M 1228 531 
L 3431 531 
L 3431 0 
L 469 0 
L 469 531 
Q 828 903 1448 1529 
Q 2069 2156 2228 2338 
Q 2531 2678 2651 2914 
Q 2772 3150 2772 3378 
Q 2772 3750 2511 3984 
Q 2250 4219 1831 4219 
Q 1534 4219 1204 4116 
Q 875 4013 500 3803 
L 500 4441 
Q 881 4594 1212 4672 
Q 1544 4750 1819 4750 
Q 2544 4750 2975 4387 
Q 3406 4025 3406 3419 
Q 3406 3131 3298 2873 
Q 3191 2616 2906 2266 
Q 2828 2175 2409 1742 
Q 1991 1309 1228 531 
z
" transform="scale(0.015625)"/>
       </defs>
       <use xlink:href="#DejaVuSans-39"/>
       <use xlink:href="#DejaVuSans-30" x="63.623047"/>
       <use xlink:href="#DejaVuSans-2e" x="127.246094"/>
       <use xlink:href="#DejaVuSans-32" x="159.033203"/>
       <use xlink:href="#DejaVuSans-35" x="222.65625"/>
      </g>
     </g>
    </g>
    <g id="xtick_4">
     <g id="line2d_4">
      <path d="M 271.818283 296.896379 
L 271.818283 7.2 
" clip-path="url(#p4d74b45127)" style="fill: none; stroke-dasharray: 2.1,2.1; stroke-dashoffset: 0; stroke: #d7dbe2; stroke-opacity: 0.9; stroke-width: 0.7"/>
     </g>
     <g id="text_4">
      <!-- 90.50 -->
      <g transform="translate(257.504221 311.494817) scale(0.1 -0.1)">
       <use xlink:href="#DejaVuSans-39"/>
       <use xlink:href="#DejaVuSans-30" x="63.623047"/>
       <use xlink:href="#DejaVuSans-2e" x="127.246094"/>
       <use xlink:href="#DejaVuSans-35" x="159.033203"/>
       <use xlink:href="#DejaVuSans-30" x="222.65625"/>
      </g>
     </g>
    </g>
    <g id="xtick_5">
     <g id="line2d_5">
      <path d="M 348.347434 296.896379 
L 348.347434 7.2 
" clip-path="url(#p4d74b45127)" style="fill: none; stroke-dasharray: 2.1,2.1; stroke-dashoffset: 0; stroke: #d7dbe2; stroke-opacity: 0.9; stroke-width: 0.7"/>
     </g>
     <g id="text_5">
      <!-- 90.75 -->
      <g transform="translate(334.033372 311.494817) scale(0.1 -0.1)">
       <use xlink:href="#DejaVuSans-39"/>
       <use xlink:href="#DejaVuSans-30" x="63.623047"/>
       <use xlink:href="#DejaVuSans-2e" x="127.246094"/>
       <use xlink:href="#DejaVuSans-37" x="159.033203"/>
       <use xlink:href="#DejaVuSans-35" x="222.65625"/>
      </g>
     </g>
    </g>
    <g id="xtick_6">
     <g id="line2d_6">
      <path d="M 424.876585 296.896379 
L 424.876585 7.2 
" clip-path="url(#p4d74b45127)" style="fill: none; stroke-dasharray: 2.1,2.1; stroke-dashoffset: 0; stroke: #d7dbe2; stroke-opacity: 0.9; stroke-width: 0.7"/>
     </g>
     <g id="text_6">
      <!-- 91.00 -->
      <g transform="translate(410.562523 311.494817) scale(0.1 -0.1)">
       <defs>
        <path id="DejaVuSans-31" d="M 794 531 
L 1825 531 
L 1825 4091 
L 703 3866 
L 703 4441 
L 1819 4666 
L 2450 4666 
L 2450 531 
L 3481 531 
L 3481 0 
L 794 0 
L 794 531 
z
" transform="scale(0.015625)"/>
       </defs>
       <use xlink:href="#DejaVuSans-39"/>
       <use xlink:href="#DejaVuSans-31" x="63.623047"/>
       <use xlink:href="#DejaVuSans-2e" x="127.246094"/>
       <use xlink:href="#DejaVuSans-30" x="159.033203"/>
       <use xlink:href="#DejaVuSans-30" x="222.65625"/>
      </g>
     </g>
    </g>
    <g id="xtick_7">
     <g id="line2d_7">
      <path d="M 501.405737 296.896379 
L 501.405737 7.2 
" clip-path="url(#p4d74b45127)" style="fill: none; stroke-dasharray: 2.1,2.1; stroke-dashoffset: 0; stroke: #d7dbe2; stroke-opacity: 0.9; stroke-width: 0.7"/>
     </g>
     <g id="text_7">
      <!-- 91.25 -->
      <g transform="translate(487.091674 311.494817) scale(0.1 -0.1)">
       <use xlink:href="#DejaVuSans-39"/>
       <use xlink:href="#DejaVuSans-31" x="63.623047"/>
       <use xlink:href="#DejaVuSans-2e" x="127.246094"/>
       <use xlink:href="#DejaVuSans-32" x="159.033203"/>
       <use xlink:href="#DejaVuSans-35" x="222.65625"/>
      </g>
     </g>
    </g>
    <g id="xtick_8">
     <g id="line2d_8">
      <path d="M 577.934888 296.896379 
L 577.934888 7.2 
" clip-path="url(#p4d74b45127)" style="fill: none; stroke-dasharray: 2.1,2.1; stroke-dashoffset: 0; stroke: #d7dbe2; stroke-opacity: 0.9; stroke-width: 0.7"/>
     </g>
     <g id="text_8">
      <!-- 91.50 -->
      <g transform="translate(563.620825 311.494817) scale(0.1 -0.1)">
       <use xlink:href="#DejaVuSans-39"/>
       <use xlink:href="#DejaVuSans-31" x="63.623047"/>
       <use xlink:href="#DejaVuSans-2e" x="127.246094"/>
       <use xlink:href="#DejaVuSans-35" x="159.033203"/>
       <use xlink:href="#DejaVuSans-30" x="222.65625"/>
      </g>
     </g>
    </g>
   </g>
   <g id="matplotlib.axis_2">
    <g id="ytick_1">
     <g id="line2d_9">
      <path d="M 26.925 296.896379 
L 608.546548 296.896379 
" clip-path="url(#p4d74b45127)" style="fill: none; stroke-dasharray: 2.1,2.1; stroke-dashoffset: 0; stroke: #d7dbe2; stroke-opacity: 0.9; stroke-width: 0.7"/>
     </g>
     <g id="line2d_10">
      <defs>
       <path id="m22781fbfbd" d="M 0 0 
L -3.5 0 
" style="stroke: #000000; stroke-width: 0.8"/>
      </defs>
      <g>
       <use xlink:href="#m22781fbfbd" x="26.925" y="296.896379" style="stroke: #000000; stroke-width: 0.8"/>
      </g>
     </g>
     <g id="text_9">
      <!-- 62 -->
      <g transform="translate(7.2 300.695598) scale(0.1 -0.1)">
       <defs>
        <path id="DejaVuSans-36" d="M 2113 2584 
Q 1688 2584 1439 2293 
Q 1191 2003 1191 1497 
Q 1191 994 1439 701 
Q 1688 409 2113 409 
Q 2538 409 2786 701 
Q 3034 994 3034 1497 
Q 3034 2003 2786 2293 
Q 2538 2584 2113 2584 
z
M 3366 4563 
L 3366 3988 
Q 3128 4100 2886 4159 
Q 2644 4219 2406 4219 
Q 1781 4219 1451 3797 
Q 1122 3375 1075 2522 
Q 1259 2794 1537 2939 
Q 1816 3084 2150 3084 
Q 2853 3084 3261 2657 
Q 3669 2231 3669 1497 
Q 3669 778 3244 343 
Q 2819 -91 2113 -91 
Q 1303 -91 875 529 
Q 447 1150 447 2328 
Q 447 3434 972 4092 
Q 1497 4750 2381 4750 
Q 2619 4750 2861 4703 
Q 3103 4656 3366 4563 
z
" transform="scale(0.015625)"/>
       </defs>
       <use xlink:href="#DejaVuSans-36"/>
       <use xlink:href="#DejaVuSans-32" x="63.623047"/>
      </g>
     </g>
    </g>
    <g id="ytick_2">
     <g id="line2d_11">
      <path d="M 26.925 246.5144 
L 608.546548 246.5144 
" clip-path="url(#p4d74b45127)" style="fill: none; stroke-dasharray: 2.1,2.1; stroke-dashoffset: 0; stroke: #d7dbe2; stroke-opacity: 0.9; stroke-width: 0.7"/>
     </g>
     <g id="line2d_12">
      <g>
       <use xlink:href="#m22781fbfbd" x="26.925" y="246.5144" style="stroke: #000000; stroke-width: 0.8"/>
      </g>
     </g>
     <g id="text_10">
      <!-- 64 -->
      <g transform="translate(7.2 250.313619) scale(0.1 -0.1)">
       <defs>
        <path id="DejaVuSans-34" d="M 2419 4116 
L 825 1625 
L 2419 1625 
L 2419 4116 
z
M 2253 4666 
L 3047 4666 
L 3047 1625 
L 3713 1625 
L 3713 1100 
L 3047 1100 
L 3047 0 
L 2419 0 
L 2419 1100 
L 313 1100 
L 313 1709 
L 2253 4666 
z
" transform="scale(0.015625)"/>
       </defs>
       <use xlink:href="#DejaVuSans-36"/>
       <use xlink:href="#DejaVuSans-34" x="63.623047"/>
      </g>
     </g>
    </g>
    <g id="ytick_3">
     <g id="line2d_13">
      <path d="M 26.925 196.132421 
L 608.546548 196.132421 
" clip-path="url(#p4d74b45127)" style="fill: none; stroke-dasharray: 2.1,2.1; stroke-dashoffset: 0; stroke: #d7dbe2; stroke-opacity: 0.9; stroke-width: 0.7"/>
     </g>
     <g id="line2d_14">
      <g>
       <use xlink:href="#m22781fbfbd" x="26.925" y="196.132421" style="stroke: #000000; stroke-width: 0.8"/>
      </g>
     </g>
     <g id="text_11">
      <!-- 66 -->
      <g transform="translate(7.2 199.93164) scale(0.1 -0.1)">
       <use xlink:href="#DejaVuSans-36"/>
       <use xlink:href="#DejaVuSans-36" x="63.623047"/>
      </g>
     </g>
    </g>
    <g id="ytick_4">
     <g id="line2d_15">
      <path d="M 26.925 145.750442 
L 608.546548 145.750442 
" clip-path="url(#p4d74b45127)" style="fill: none; stroke-dasharray: 2.1,2.1; stroke-dashoffset: 0; stroke: #d7dbe2; stroke-opacity: 0.9; stroke-width: 0.7"/>
     </g>
     <g id="line2d_16">
      <g>
       <use xlink:href="#m22781fbfbd" x="26.925" y="145.750442" style="stroke: #000000; stroke-width: 0.8"/>
      </g>
     </g>
     <g id="text_12">
      <!-- 68 -->
      <g transform="translate(7.2 149.549661) scale(0.1 -0.1)">
       <use xlink:href="#DejaVuSans-36"/>
       <use xlink:href="#DejaVuSans-38" x="63.623047"/>
      </g>
     </g>
    </g>
    <g id="ytick_5">
     <g id="line2d_17">
      <path d="M 26.925 95.368463 
L 608.546548 95.368463 
" clip-path="url(#p4d74b45127)" style="fill: none; stroke-dasharray: 2.1,2.1; stroke-dashoffset: 0; stroke: #d7dbe2; stroke-opacity: 0.9; stroke-width: 0.7"/>
     </g>
     <g id="line2d_18">
      <g>
       <use xlink:href="#m22781fbfbd" x="26.925" y="95.368463" style="stroke: #000000; stroke-width: 0.8"/>
      </g>
     </g>
     <g id="text_13">
      <!-- 70 -->
      <g transform="translate(7.2 99.167682) scale(0.1 -0.1)">
       <use xlink:href="#DejaVuSans-37"/>
       <use xlink:href="#DejaVuSans-30" x="63.623047"/>
      </g>
     </g>
    </g>
    <g id="ytick_6">
     <g id="line2d_19">
      <path d="M 26.925 44.986484 
L 608.546548 44.986484 
" clip-path="url(#p4d74b45127)" style="fill: none; stroke-dasharray: 2.1,2.1; stroke-dashoffset: 0; stroke: #d7dbe2; stroke-opacity: 0.9; stroke-width: 0.7"/>
     </g>
     <g id="line2d_20">
      <g>
       <use xlink:href="#m22781fbfbd" x="26.925" y="44.986484" style="stroke: #000000; stroke-width: 0.8"/>
      </g>
     </g>
     <g id="text_14">
      <!-- 72 -->
      <g transform="translate(7.2 48.785703) scale(0.1 -0.1)">
       <use xlink:href="#DejaVuSans-37"/>
       <use xlink:href="#DejaVuSans-32" x="63.623047"/>
      </g>
     </g>
    </g>
   </g>
   <g id="PathCollection_1">
    <defs>
     <path id="m7d34d8874f" d="M -0 5.09902 
L 5.09902 0 
L 0 -5.09902 
L -5.09902 -0 
z
" style="stroke: #ffffff; stroke-opacity: 0.78; stroke-width: 0.7"/>
    </defs>
    <g clip-path="url(#p4d74b45127)">
     <use xlink:href="#m7d34d8874f" x="179.983302" y="126.10147" style="fill: #af4fa8; fill-opacity: 0.78; stroke: #ffffff; stroke-opacity: 0.78; stroke-width: 0.7"/>
     <use xlink:href="#m7d34d8874f" x="164.677472" y="194.369052" style="fill: #af4fa8; fill-opacity: 0.78; stroke: #ffffff; stroke-opacity: 0.78; stroke-width: 0.7"/>
     <use xlink:href="#m7d34d8874f" x="424.876585" y="133.910677" style="fill: #af4fa8; fill-opacity: 0.78; stroke: #ffffff; stroke-opacity: 0.78; stroke-width: 0.7"/>
     <use xlink:href="#m7d34d8874f" x="412.631921" y="97.131832" style="fill: #af4fa8; fill-opacity: 0.78; stroke: #ffffff; stroke-opacity: 0.78; stroke-width: 0.7"/>
     <use xlink:href="#m7d34d8874f" x="449.365914" y="67.406465" style="fill: #af4fa8; fill-opacity: 0.78; stroke: #ffffff; stroke-opacity: 0.78; stroke-width: 0.7"/>
     <use xlink:href="#m7d34d8874f" x="574.873722" y="116.780804" style="fill: #af4fa8; fill-opacity: 0.78; stroke: #ffffff; stroke-opacity: 0.78; stroke-width: 0.7"/>
     <use xlink:href="#m7d34d8874f" x="427.937752" y="155.574928" style="fill: #af4fa8; fill-opacity: 0.78; stroke: #ffffff; stroke-opacity: 0.78; stroke-width: 0.7"/>
     <use xlink:href="#m7d34d8874f" x="544.262061" y="181.521647" style="fill: #af4fa8; fill-opacity: 0.78; stroke: #ffffff; stroke-opacity: 0.78; stroke-width: 0.7"/>
     <use xlink:href="#m7d34d8874f" x="360.592099" y="162.376495" style="fill: #af4fa8; fill-opacity: 0.78; stroke: #ffffff; stroke-opacity: 0.78; stroke-width: 0.7"/>
     <use xlink:href="#m7d34d8874f" x="421.815419" y="147.009992" style="fill: #af4fa8; fill-opacity: 0.78; stroke: #ffffff; stroke-opacity: 0.78; stroke-width: 0.7"/>
     <use xlink:href="#m7d34d8874f" x="516.711567" y="34.154359" style="fill: #af4fa8; fill-opacity: 0.78; stroke: #ffffff; stroke-opacity: 0.78; stroke-width: 0.7"/>
     <use xlink:href="#m7d34d8874f" x="553.445559" y="128.11675" style="fill: #af4fa8; fill-opacity: 0.78; stroke: #ffffff; stroke-opacity: 0.78; stroke-width: 0.7"/>
     <use xlink:href="#m7d34d8874f" x="479.977574" y="144.994712" style="fill: #af4fa8; fill-opacity: 0.78; stroke: #ffffff; stroke-opacity: 0.78; stroke-width: 0.7"/>
     <use xlink:href="#m7d34d8874f" x="470.794076" y="146.506172" style="fill: #af4fa8; fill-opacity: 0.78; stroke: #ffffff; stroke-opacity: 0.78; stroke-width: 0.7"/>
     <use xlink:href="#m7d34d8874f" x="418.754253" y="167.414693" style="fill: #af4fa8; fill-opacity: 0.78; stroke: #ffffff; stroke-opacity: 0.78; stroke-width: 0.7"/>
     <use xlink:href="#m7d34d8874f" x="483.03874" y="147.009992" style="fill: #af4fa8; fill-opacity: 0.78; stroke: #ffffff; stroke-opacity: 0.78; stroke-width: 0.7"/>
     <use xlink:href="#m7d34d8874f" x="476.916408" y="212.254654" style="fill: #af4fa8; fill-opacity: 0.78; stroke: #ffffff; stroke-opacity: 0.78; stroke-width: 0.7"/>
     <use xlink:href="#m7d34d8874f" x="571.812556" y="171.697161" style="fill: #af4fa8; fill-opacity: 0.78; stroke: #ffffff; stroke-opacity: 0.78; stroke-width: 0.7"/>
     <use xlink:href="#m7d34d8874f" x="547.323227" y="201.926349" style="fill: #af4fa8; fill-opacity: 0.78; stroke: #ffffff; stroke-opacity: 0.78; stroke-width: 0.7"/>
     <use xlink:href="#m7d34d8874f" x="464.671744" y="212.758474" style="fill: #af4fa8; fill-opacity: 0.78; stroke: #ffffff; stroke-opacity: 0.78; stroke-width: 0.7"/>
     <use xlink:href="#m7d34d8874f" x="473.855242" y="272.713029" style="fill: #af4fa8; fill-opacity: 0.78; stroke: #ffffff; stroke-opacity: 0.78; stroke-width: 0.7"/>
     <use xlink:href="#m7d34d8874f" x="189.1668" y="208.979826" style="fill: #af4fa8; fill-opacity: 0.78; stroke: #ffffff; stroke-opacity: 0.78; stroke-width: 0.7"/>
     <use xlink:href="#m7d34d8874f" x="253.451287" y="230.392167" style="fill: #af4fa8; fill-opacity: 0.78; stroke: #ffffff; stroke-opacity: 0.78; stroke-width: 0.7"/>
     <use xlink:href="#m7d34d8874f" x="418.754253" y="268.682471" style="fill: #af4fa8; fill-opacity: 0.78; stroke: #ffffff; stroke-opacity: 0.78; stroke-width: 0.7"/>
     <use xlink:href="#m7d34d8874f" x="314.674608" y="312.262883" style="fill: #af4fa8; fill-opacity: 0.78; stroke: #ffffff; stroke-opacity: 0.78; stroke-width: 0.7"/>
     <use xlink:href="#m7d34d8874f" x="259.573619" y="421.843687" style="fill: #af4fa8; fill-opacity: 0.78; stroke: #ffffff; stroke-opacity: 0.78; stroke-width: 0.7"/>
     <use xlink:href="#m7d34d8874f" x="391.203759" y="412.271111" style="fill: #af4fa8; fill-opacity: 0.78; stroke: #ffffff; stroke-opacity: 0.78; stroke-width: 0.7"/>
     <use xlink:href="#m7d34d8874f" x="308.552276" y="480.790602" style="fill: #af4fa8; fill-opacity: 0.78; stroke: #ffffff; stroke-opacity: 0.78; stroke-width: 0.7"/>
     <use xlink:href="#m7d34d8874f" x="210.594963" y="488.851719" style="fill: #af4fa8; fill-opacity: 0.78; stroke: #ffffff; stroke-opacity: 0.78; stroke-width: 0.7"/>
     <use xlink:href="#m7d34d8874f" x="51.414328" y="465.927919" style="fill: #af4fa8; fill-opacity: 0.78; stroke: #ffffff; stroke-opacity: 0.78; stroke-width: 0.7"/>
    </g>
   </g>
   <g id="line2d_21">
    <path d="M 179.983302 126.10147 
L 449.365914 67.406465 
L 516.711567 34.154359 
L 571.812556 171.697161 
" clip-path="url(#p4d74b45127)" style="fill: none; stroke-dasharray: 7.2,5.4; stroke-dashoffset: 0; stroke: #7fafbc; stroke-opacity: 0.95; stroke-width: 1.8"/>
   </g>
   <g id="line2d_22">
    <path d="M 22.272028 299.21395 
L 31.577972 294.578808 
" style="fill: none; stroke: #4a4a4a; stroke-linecap: square"/>
   </g>
   <g id="line2d_23">
    <path d="M 603.893576 299.21395 
L 613.19952 294.578808 
" style="fill: none; stroke: #4a4a4a; stroke-linecap: square"/>
   </g>
   <g id="patch_3">
    <path d="M 26.925 296.896379 
L 26.925 7.2 
" style="fill: none; stroke: #4a4a4a; stroke-linejoin: miter; stroke-linecap: square"/>
   </g>
   <g id="patch_4">
    <path d="M 608.546548 296.896379 
L 608.546548 7.2 
" style="fill: none; stroke: #4a4a4a; stroke-linejoin: miter; stroke-linecap: square"/>
   </g>
   <g id="patch_5">
    <path d="M 26.925 7.2 
L 608.546548 7.2 
" style="fill: none; stroke: #4a4a4a; stroke-linejoin: miter; stroke-linecap: square"/>
   </g>
   <g id="PathCollection_2">
    <defs>
     <path id="maae36a0e32" d="M 0 6.123724 
C 1.624031 6.123724 3.181764 5.47849 4.330127 4.330127 
C 5.47849 3.181764 6.123724 1.624031 6.123724 0 
C 6.123724 -1.624031 5.47849 -3.181764 4.330127 -4.330127 
C 3.181764 -5.47849 1.624031 -6.123724 0 -6.123724 
C -1.624031 -6.123724 -3.181764 -5.47849 -4.330127 -4.330127 
C -5.47849 -3.181764 -6.123724 -1.624031 -6.123724 0 
C -6.123724 1.624031 -5.47849 3.181764 -4.330127 4.330127 
C -3.181764 5.47849 -1.624031 6.123724 0 6.123724 
z
" style="stroke: #222222; stroke-width: 1.3"/>
    </defs>
    <g clip-path="url(#p4d74b45127)">
     <use xlink:href="#maae36a0e32" x="179.983302" y="126.10147" style="fill: #4e79a7; stroke: #222222; stroke-width: 1.3"/>
    </g>
   </g>
   <g id="PathCollection_3">
    <defs>
     <path id="m2ff1ff0735" d="M 0 -6.123724 
L -6.123724 6.123724 
L 6.123724 6.123724 
z
" style="stroke: #222222; stroke-width: 1.3"/>
    </defs>
    <g clip-path="url(#p4d74b45127)">
     <use xlink:href="#m2ff1ff0735" x="571.812556" y="171.697161" style="fill: #f28e2b; stroke: #222222; stroke-width: 1.3"/>
    </g>
   </g>
   <g id="PathCollection_4">
    <defs>
     <path id="md161cc2de4" d="M -6.123724 6.123724 
L 6.123724 6.123724 
L 6.123724 -6.123724 
L -6.123724 -6.123724 
z
" style="stroke: #222222; stroke-width: 1.3"/>
    </defs>
    <g clip-path="url(#p4d74b45127)">
     <use xlink:href="#md161cc2de4" x="449.365914" y="67.406465" style="fill: #59a14f; stroke: #222222; stroke-width: 1.3"/>
    </g>
   </g>
   <g id="PathCollection_5">
    <defs>
     <path id="mf11c142580" d="M 0 -7.905694 
L -2.323425 -3.19792 
L -7.518762 -2.442994 
L -3.759381 1.221497 
L -4.64685 6.395841 
L -0 3.952847 
L 4.64685 6.395841 
L 3.759381 1.221497 
L 7.518762 -2.442994 
L 2.323425 -3.19792 
z
" style="stroke: #222222; stroke-width: 1.3"/>
    </defs>
    <g clip-path="url(#p4d74b45127)">
     <use xlink:href="#mf11c142580" x="516.711567" y="34.154359" style="fill: #e15759; stroke: #222222; stroke-width: 1.3"/>
    </g>
   </g>
   <g id="text_15">
    <!-- No KD + No DR -->
    <g style="fill: #222222" transform="translate(137.566115 145.699908) scale(0.1 -0.1)">
     <defs>
      <path id="DejaVuSans-Bold-4e" d="M 588 4666 
L 1931 4666 
L 3628 1466 
L 3628 4666 
L 4769 4666 
L 4769 0 
L 3425 0 
L 1728 3200 
L 1728 0 
L 588 0 
L 588 4666 
z
" transform="scale(0.015625)"/>
      <path id="DejaVuSans-Bold-6f" d="M 2203 2784 
Q 1831 2784 1636 2517 
Q 1441 2250 1441 1747 
Q 1441 1244 1636 976 
Q 1831 709 2203 709 
Q 2569 709 2762 976 
Q 2956 1244 2956 1747 
Q 2956 2250 2762 2517 
Q 2569 2784 2203 2784 
z
M 2203 3584 
Q 3106 3584 3614 3096 
Q 4122 2609 4122 1747 
Q 4122 884 3614 396 
Q 3106 -91 2203 -91 
Q 1297 -91 786 396 
Q 275 884 275 1747 
Q 275 2609 786 3096 
Q 1297 3584 2203 3584 
z
" transform="scale(0.015625)"/>
      <path id="DejaVuSans-Bold-20" transform="scale(0.015625)"/>
      <path id="DejaVuSans-Bold-4b" d="M 588 4666 
L 1791 4666 
L 1791 2963 
L 3525 4666 
L 4922 4666 
L 2675 2456 
L 5153 0 
L 3647 0 
L 1791 1838 
L 1791 0 
L 588 0 
L 588 4666 
z
" transform="scale(0.015625)"/>
      <path id="DejaVuSans-Bold-44" d="M 1791 3756 
L 1791 909 
L 2222 909 
Q 2959 909 3348 1275 
Q 3738 1641 3738 2338 
Q 3738 3031 3350 3393 
Q 2963 3756 2222 3756 
L 1791 3756 
z
M 588 4666 
L 1856 4666 
Q 2919 4666 3439 4514 
Q 3959 4363 4331 4000 
Q 4659 3684 4818 3271 
Q 4978 2859 4978 2338 
Q 4978 1809 4818 1395 
Q 4659 981 4331 666 
Q 3956 303 3431 151 
Q 2906 0 1856 0 
L 588 0 
L 588 4666 
z
" transform="scale(0.015625)"/>
      <path id="DejaVuSans-Bold-2b" d="M 3053 4013 
L 3053 2375 
L 4684 2375 
L 4684 1638 
L 3053 1638 
L 3053 0 
L 2309 0 
L 2309 1638 
L 678 1638 
L 678 2375 
L 2309 2375 
L 2309 4013 
L 3053 4013 
z
" transform="scale(0.015625)"/>
      <path id="DejaVuSans-Bold-52" d="M 2297 2597 
Q 2675 2597 2839 2737 
Q 3003 2878 3003 3200 
Q 3003 3519 2839 3656 
Q 2675 3794 2297 3794 
L 1791 3794 
L 1791 2597 
L 2297 2597 
z
M 1791 1766 
L 1791 0 
L 588 0 
L 588 4666 
L 2425 4666 
Q 3347 4666 3776 4356 
Q 4206 4047 4206 3378 
Q 4206 2916 3982 2619 
Q 3759 2322 3309 2181 
Q 3556 2125 3751 1926 
Q 3947 1728 4147 1325 
L 4800 0 
L 3519 0 
L 2950 1159 
Q 2778 1509 2601 1637 
Q 2425 1766 2131 1766 
L 1791 1766 
z
" transform="scale(0.015625)"/>
     </defs>
     <use xlink:href="#DejaVuSans-Bold-4e"/>
     <use xlink:href="#DejaVuSans-Bold-6f" x="83.691406"/>
     <use xlink:href="#DejaVuSans-Bold-20" x="152.392578"/>
     <use xlink:href="#DejaVuSans-Bold-4b" x="187.207031"/>
     <use xlink:href="#DejaVuSans-Bold-44" x="264.697266"/>
     <use xlink:href="#DejaVuSans-Bold-20" x="347.705078"/>
     <use xlink:href="#DejaVuSans-Bold-2b" x="382.519531"/>
     <use xlink:href="#DejaVuSans-Bold-20" x="466.308594"/>
     <use xlink:href="#DejaVuSans-Bold-4e" x="501.123047"/>
     <use xlink:href="#DejaVuSans-Bold-6f" x="584.814453"/>
     <use xlink:href="#DejaVuSans-Bold-20" x="653.515625"/>
     <use xlink:href="#DejaVuSans-Bold-44" x="688.330078"/>
     <use xlink:href="#DejaVuSans-Bold-52" x="771.337891"/>
    </g>
   </g>
   <g id="text_16">
    <!-- KD-only -->
    <g style="fill: #222222" transform="translate(549.650837 191.295599) scale(0.1 -0.1)">
     <defs>
      <path id="DejaVuSans-Bold-2d" d="M 347 2297 
L 2309 2297 
L 2309 1388 
L 347 1388 
L 347 2297 
z
" transform="scale(0.015625)"/>
      <path id="DejaVuSans-Bold-6e" d="M 4056 2131 
L 4056 0 
L 2931 0 
L 2931 347 
L 2931 1631 
Q 2931 2084 2911 2256 
Q 2891 2428 2841 2509 
Q 2775 2619 2662 2680 
Q 2550 2741 2406 2741 
Q 2056 2741 1856 2470 
Q 1656 2200 1656 1722 
L 1656 0 
L 538 0 
L 538 3500 
L 1656 3500 
L 1656 2988 
Q 1909 3294 2193 3439 
Q 2478 3584 2822 3584 
Q 3428 3584 3742 3212 
Q 4056 2841 4056 2131 
z
" transform="scale(0.015625)"/>
      <path id="DejaVuSans-Bold-6c" d="M 538 4863 
L 1656 4863 
L 1656 0 
L 538 0 
L 538 4863 
z
" transform="scale(0.015625)"/>
      <path id="DejaVuSans-Bold-79" d="M 78 3500 
L 1197 3500 
L 2138 1125 
L 2938 3500 
L 4056 3500 
L 2584 -331 
Q 2363 -916 2067 -1148 
Q 1772 -1381 1288 -1381 
L 641 -1381 
L 641 -647 
L 991 -647 
Q 1275 -647 1404 -556 
Q 1534 -466 1606 -231 
L 1638 -134 
L 78 3500 
z
" transform="scale(0.015625)"/>
     </defs>
     <use xlink:href="#DejaVuSans-Bold-4b"/>
     <use xlink:href="#DejaVuSans-Bold-44" x="77.490234"/>
     <use xlink:href="#DejaVuSans-Bold-2d" x="162.373047"/>
     <use xlink:href="#DejaVuSans-Bold-6f" x="203.876953"/>
     <use xlink:href="#DejaVuSans-Bold-6e" x="272.578125"/>
     <use xlink:href="#DejaVuSans-Bold-6c" x="343.769531"/>
     <use xlink:href="#DejaVuSans-Bold-79" x="378.046875"/>
    </g>
   </g>
   <g id="text_17">
    <!-- DR-only -->
    <g style="fill: #222222" transform="translate(422.322164 49.248652) scale(0.1 -0.1)">
     <use xlink:href="#DejaVuSans-Bold-44"/>
     <use xlink:href="#DejaVuSans-Bold-52" x="83.007812"/>
     <use xlink:href="#DejaVuSans-Bold-2d" x="160.009766"/>
     <use xlink:href="#DejaVuSans-Bold-6f" x="201.513672"/>
     <use xlink:href="#DejaVuSans-Bold-6e" x="270.214844"/>
     <use xlink:href="#DejaVuSans-Bold-6c" x="341.40625"/>
     <use xlink:href="#DejaVuSans-Bold-79" x="375.683594"/>
    </g>
   </g>
   <g id="text_18">
    <!-- KD + DR -->
    <g style="fill: #222222" transform="translate(493.014692 22.074671) scale(0.1 -0.1)">
     <use xlink:href="#DejaVuSans-Bold-4b"/>
     <use xlink:href="#DejaVuSans-Bold-44" x="77.490234"/>
     <use xlink:href="#DejaVuSans-Bold-20" x="160.498047"/>
     <use xlink:href="#DejaVuSans-Bold-2b" x="195.3125"/>
     <use xlink:href="#DejaVuSans-Bold-20" x="279.101562"/>
     <use xlink:href="#DejaVuSans-Bold-44" x="313.916016"/>
     <use xlink:href="#DejaVuSans-Bold-52" x="396.923828"/>
    </g>
   </g>
  </g>
  <g id="axes_2">
   <g id="patch_6">
    <path d="M 26.925 430.921395 
L 608.546548 430.921395 
L 608.546548 325.577257 
L 26.925 325.577257 
z
" style="fill: #ffffff"/>
   </g>
   <g id="matplotlib.axis_3">
    <g id="xtick_9">
     <g id="line2d_24">
      <path d="M 121.388255 430.921395 
L 121.388255 325.577257 
" clip-path="url(#p07be239bb5)" style="fill: none; stroke-dasharray: 2.1,2.1; stroke-dashoffset: 0; stroke: #d7dbe2; stroke-opacity: 0.9; stroke-width: 0.7"/>
     </g>
     <g id="line2d_25">
      <defs>
       <path id="m120d89ba20" d="M 0 0 
L 0 3.5 
" style="stroke: #000000; stroke-width: 0.8"/>
      </defs>
      <g>
       <use xlink:href="#m120d89ba20" x="121.388255" y="430.921395" style="stroke: #000000; stroke-width: 0.8"/>
      </g>
     </g>
     <g id="text_19">
      <!-- 90.0 -->
      <g transform="translate(110.255443 445.519832) scale(0.1 -0.1)">
       <use xlink:href="#DejaVuSans-39"/>
       <use xlink:href="#DejaVuSans-30" x="63.623047"/>
       <use xlink:href="#DejaVuSans-2e" x="127.246094"/>
       <use xlink:href="#DejaVuSans-30" x="159.033203"/>
      </g>
     </g>
    </g>
    <g id="xtick_10">
     <g id="line2d_26">
      <path d="M 275.992601 430.921395 
L 275.992601 325.577257 
" clip-path="url(#p07be239bb5)" style="fill: none; stroke-dasharray: 2.1,2.1; stroke-dashoffset: 0; stroke: #d7dbe2; stroke-opacity: 0.9; stroke-width: 0.7"/>
     </g>
     <g id="line2d_27">
      <g>
       <use xlink:href="#m120d89ba20" x="275.992601" y="430.921395" style="stroke: #000000; stroke-width: 0.8"/>
      </g>
     </g>
     <g id="text_20">
      <!-- 90.5 -->
      <g transform="translate(264.859788 445.519832) scale(0.1 -0.1)">
       <use xlink:href="#DejaVuSans-39"/>
       <use xlink:href="#DejaVuSans-30" x="63.623047"/>
       <use xlink:href="#DejaVuSans-2e" x="127.246094"/>
       <use xlink:href="#DejaVuSans-35" x="159.033203"/>
      </g>
     </g>
    </g>
    <g id="xtick_11">
     <g id="line2d_28">
      <path d="M 430.596946 430.921395 
L 430.596946 325.577257 
" clip-path="url(#p07be239bb5)" style="fill: none; stroke-dasharray: 2.1,2.1; stroke-dashoffset: 0; stroke: #d7dbe2; stroke-opacity: 0.9; stroke-width: 0.7"/>
     </g>
     <g id="line2d_29">
      <g>
       <use xlink:href="#m120d89ba20" x="430.596946" y="430.921395" style="stroke: #000000; stroke-width: 0.8"/>
      </g>
     </g>
     <g id="text_21">
      <!-- 91.0 -->
      <g transform="translate(419.464134 445.519832) scale(0.1 -0.1)">
       <use xlink:href="#DejaVuSans-39"/>
       <use xlink:href="#DejaVuSans-31" x="63.623047"/>
       <use xlink:href="#DejaVuSans-2e" x="127.246094"/>
       <use xlink:href="#DejaVuSans-30" x="159.033203"/>
      </g>
     </g>
    </g>
    <g id="xtick_12">
     <g id="line2d_30">
      <path d="M 585.201292 430.921395 
L 585.201292 325.577257 
" clip-path="url(#p07be239bb5)" style="fill: none; stroke-dasharray: 2.1,2.1; stroke-dashoffset: 0; stroke: #d7dbe2; stroke-opacity: 0.9; stroke-width: 0.7"/>
     </g>
     <g id="line2d_31">
      <g>
       <use xlink:href="#m120d89ba20" x="585.201292" y="430.921395" style="stroke: #000000; stroke-width: 0.8"/>
      </g>
     </g>
     <g id="text_22">
      <!-- 91.5 -->
      <g transform="translate(574.068479 445.519832) scale(0.1 -0.1)">
       <use xlink:href="#DejaVuSans-39"/>
       <use xlink:href="#DejaVuSans-31" x="63.623047"/>
       <use xlink:href="#DejaVuSans-2e" x="127.246094"/>
       <use xlink:href="#DejaVuSans-35" x="159.033203"/>
      </g>
     </g>
    </g>
   </g>
   <g id="matplotlib.axis_4">
    <g id="ytick_7">
     <g id="line2d_32">
      <path d="M 26.925 430.921395 
L 608.546548 430.921395 
" clip-path="url(#p07be239bb5)" style="fill: none; stroke-dasharray: 2.1,2.1; stroke-dashoffset: 0; stroke: #d7dbe2; stroke-opacity: 0.9; stroke-width: 0.7"/>
     </g>
     <g id="line2d_33">
      <g>
       <use xlink:href="#m22781fbfbd" x="26.925" y="430.921395" style="stroke: #000000; stroke-width: 0.8"/>
      </g>
     </g>
     <g id="text_23">
      <!-- 54 -->
      <g transform="translate(7.2 434.720614) scale(0.1 -0.1)">
       <use xlink:href="#DejaVuSans-35"/>
       <use xlink:href="#DejaVuSans-34" x="63.623047"/>
      </g>
     </g>
    </g>
    <g id="ytick_8">
     <g id="line2d_34">
      <path d="M 26.925 407.511587 
L 608.546548 407.511587 
" clip-path="url(#p07be239bb5)" style="fill: none; stroke-dasharray: 2.1,2.1; stroke-dashoffset: 0; stroke: #d7dbe2; stroke-opacity: 0.9; stroke-width: 0.7"/>
     </g>
     <g id="line2d_35">
      <g>
       <use xlink:href="#m22781fbfbd" x="26.925" y="407.511587" style="stroke: #000000; stroke-width: 0.8"/>
      </g>
     </g>
     <g id="text_24">
      <!-- 55 -->
      <g transform="translate(7.2 411.310805) scale(0.1 -0.1)">
       <use xlink:href="#DejaVuSans-35"/>
       <use xlink:href="#DejaVuSans-35" x="63.623047"/>
      </g>
     </g>
    </g>
    <g id="ytick_9">
     <g id="line2d_36">
      <path d="M 26.925 384.101778 
L 608.546548 384.101778 
" clip-path="url(#p07be239bb5)" style="fill: none; stroke-dasharray: 2.1,2.1; stroke-dashoffset: 0; stroke: #d7dbe2; stroke-opacity: 0.9; stroke-width: 0.7"/>
     </g>
     <g id="line2d_37">
      <g>
       <use xlink:href="#m22781fbfbd" x="26.925" y="384.101778" style="stroke: #000000; stroke-width: 0.8"/>
      </g>
     </g>
     <g id="text_25">
      <!-- 56 -->
      <g transform="translate(7.2 387.900997) scale(0.1 -0.1)">
       <use xlink:href="#DejaVuSans-35"/>
       <use xlink:href="#DejaVuSans-36" x="63.623047"/>
      </g>
     </g>
    </g>
    <g id="ytick_10">
     <g id="line2d_38">
      <path d="M 26.925 360.69197 
L 608.546548 360.69197 
" clip-path="url(#p07be239bb5)" style="fill: none; stroke-dasharray: 2.1,2.1; stroke-dashoffset: 0; stroke: #d7dbe2; stroke-opacity: 0.9; stroke-width: 0.7"/>
     </g>
     <g id="line2d_39">
      <g>
       <use xlink:href="#m22781fbfbd" x="26.925" y="360.69197" style="stroke: #000000; stroke-width: 0.8"/>
      </g>
     </g>
     <g id="text_26">
      <!-- 57 -->
      <g transform="translate(7.2 364.491189) scale(0.1 -0.1)">
       <use xlink:href="#DejaVuSans-35"/>
       <use xlink:href="#DejaVuSans-37" x="63.623047"/>
      </g>
     </g>
    </g>
    <g id="ytick_11">
     <g id="line2d_40">
      <path d="M 26.925 337.282161 
L 608.546548 337.282161 
" clip-path="url(#p07be239bb5)" style="fill: none; stroke-dasharray: 2.1,2.1; stroke-dashoffset: 0; stroke: #d7dbe2; stroke-opacity: 0.9; stroke-width: 0.7"/>
     </g>
     <g id="line2d_41">
      <g>
       <use xlink:href="#m22781fbfbd" x="26.925" y="337.282161" style="stroke: #000000; stroke-width: 0.8"/>
      </g>
     </g>
     <g id="text_27">
      <!-- 58 -->
      <g transform="translate(7.2 341.08138) scale(0.1 -0.1)">
       <use xlink:href="#DejaVuSans-35"/>
       <use xlink:href="#DejaVuSans-38" x="63.623047"/>
      </g>
     </g>
    </g>
   </g>
   <g id="PathCollection_6">
    <g clip-path="url(#p07be239bb5)">
     <use xlink:href="#m7d34d8874f" x="183.229993" y="84.924427" style="fill: #af4fa8; fill-opacity: 0.78; stroke: #ffffff; stroke-opacity: 0.78; stroke-width: 0.7"/>
     <use xlink:href="#m7d34d8874f" x="167.769559" y="148.365007" style="fill: #af4fa8; fill-opacity: 0.78; stroke: #ffffff; stroke-opacity: 0.78; stroke-width: 0.7"/>
     <use xlink:href="#m7d34d8874f" x="430.596946" y="92.181467" style="fill: #af4fa8; fill-opacity: 0.78; stroke: #ffffff; stroke-opacity: 0.78; stroke-width: 0.7"/>
     <use xlink:href="#m7d34d8874f" x="418.228599" y="58.003147" style="fill: #af4fa8; fill-opacity: 0.78; stroke: #ffffff; stroke-opacity: 0.78; stroke-width: 0.7"/>
     <use xlink:href="#m7d34d8874f" x="455.333642" y="30.379573" style="fill: #af4fa8; fill-opacity: 0.78; stroke: #ffffff; stroke-opacity: 0.78; stroke-width: 0.7"/>
     <use xlink:href="#m7d34d8874f" x="582.109205" y="76.262798" style="fill: #af4fa8; fill-opacity: 0.78; stroke: #ffffff; stroke-opacity: 0.78; stroke-width: 0.7"/>
     <use xlink:href="#m7d34d8874f" x="433.689033" y="112.313903" style="fill: #af4fa8; fill-opacity: 0.78; stroke: #ffffff; stroke-opacity: 0.78; stroke-width: 0.7"/>
     <use xlink:href="#m7d34d8874f" x="551.188336" y="136.426005" style="fill: #af4fa8; fill-opacity: 0.78; stroke: #ffffff; stroke-opacity: 0.78; stroke-width: 0.7"/>
     <use xlink:href="#m7d34d8874f" x="365.663121" y="118.634551" style="fill: #af4fa8; fill-opacity: 0.78; stroke: #ffffff; stroke-opacity: 0.78; stroke-width: 0.7"/>
     <use xlink:href="#m7d34d8874f" x="427.504859" y="104.354568" style="fill: #af4fa8; fill-opacity: 0.78; stroke: #ffffff; stroke-opacity: 0.78; stroke-width: 0.7"/>
     <use xlink:href="#m7d34d8874f" x="523.359554" y="-0.521374" style="fill: #af4fa8; fill-opacity: 0.78; stroke: #ffffff; stroke-opacity: 0.78; stroke-width: 0.7"/>
     <use xlink:href="#m7d34d8874f" x="560.464597" y="86.797211" style="fill: #af4fa8; fill-opacity: 0.78; stroke: #ffffff; stroke-opacity: 0.78; stroke-width: 0.7"/>
     <use xlink:href="#m7d34d8874f" x="486.254511" y="102.481783" style="fill: #af4fa8; fill-opacity: 0.78; stroke: #ffffff; stroke-opacity: 0.78; stroke-width: 0.7"/>
     <use xlink:href="#m7d34d8874f" x="476.97825" y="103.886371" style="fill: #af4fa8; fill-opacity: 0.78; stroke: #ffffff; stroke-opacity: 0.78; stroke-width: 0.7"/>
     <use xlink:href="#m7d34d8874f" x="424.412772" y="123.316512" style="fill: #af4fa8; fill-opacity: 0.78; stroke: #ffffff; stroke-opacity: 0.78; stroke-width: 0.7"/>
     <use xlink:href="#m7d34d8874f" x="489.346598" y="104.354568" style="fill: #af4fa8; fill-opacity: 0.78; stroke: #ffffff; stroke-opacity: 0.78; stroke-width: 0.7"/>
     <use xlink:href="#m7d34d8874f" x="483.162424" y="164.985971" style="fill: #af4fa8; fill-opacity: 0.78; stroke: #ffffff; stroke-opacity: 0.78; stroke-width: 0.7"/>
     <use xlink:href="#m7d34d8874f" x="579.017118" y="127.29618" style="fill: #af4fa8; fill-opacity: 0.78; stroke: #ffffff; stroke-opacity: 0.78; stroke-width: 0.7"/>
     <use xlink:href="#m7d34d8874f" x="554.280423" y="155.38795" style="fill: #af4fa8; fill-opacity: 0.78; stroke: #ffffff; stroke-opacity: 0.78; stroke-width: 0.7"/>
     <use xlink:href="#m7d34d8874f" x="470.794076" y="165.454168" style="fill: #af4fa8; fill-opacity: 0.78; stroke: #ffffff; stroke-opacity: 0.78; stroke-width: 0.7"/>
     <use xlink:href="#m7d34d8874f" x="480.070337" y="221.169512" style="fill: #af4fa8; fill-opacity: 0.78; stroke: #ffffff; stroke-opacity: 0.78; stroke-width: 0.7"/>
     <use xlink:href="#m7d34d8874f" x="192.506254" y="161.942696" style="fill: #af4fa8; fill-opacity: 0.78; stroke: #ffffff; stroke-opacity: 0.78; stroke-width: 0.7"/>
     <use xlink:href="#m7d34d8874f" x="257.440079" y="181.841033" style="fill: #af4fa8; fill-opacity: 0.78; stroke: #ffffff; stroke-opacity: 0.78; stroke-width: 0.7"/>
     <use xlink:href="#m7d34d8874f" x="424.412772" y="217.423942" style="fill: #af4fa8; fill-opacity: 0.78; stroke: #ffffff; stroke-opacity: 0.78; stroke-width: 0.7"/>
     <use xlink:href="#m7d34d8874f" x="319.281817" y="257.922911" style="fill: #af4fa8; fill-opacity: 0.78; stroke: #ffffff; stroke-opacity: 0.78; stroke-width: 0.7"/>
     <use xlink:href="#m7d34d8874f" x="263.624253" y="359.755577" style="fill: #af4fa8; fill-opacity: 0.78; stroke: #ffffff; stroke-opacity: 0.78; stroke-width: 0.7"/>
     <use xlink:href="#m7d34d8874f" x="396.58399" y="350.85985" style="fill: #af4fa8; fill-opacity: 0.78; stroke: #ffffff; stroke-opacity: 0.78; stroke-width: 0.7"/>
     <use xlink:href="#m7d34d8874f" x="313.097644" y="414.534529" style="fill: #af4fa8; fill-opacity: 0.78; stroke: #ffffff; stroke-opacity: 0.78; stroke-width: 0.7"/>
     <use xlink:href="#m7d34d8874f" x="214.150862" y="422.025668" style="fill: #af4fa8; fill-opacity: 0.78; stroke: #ffffff; stroke-opacity: 0.78; stroke-width: 0.7"/>
     <use xlink:href="#m7d34d8874f" x="53.362343" y="400.722742" style="fill: #af4fa8; fill-opacity: 0.78; stroke: #ffffff; stroke-opacity: 0.78; stroke-width: 0.7"/>
    </g>
   </g>
   <g id="line2d_42">
    <path d="M 183.229993 84.924427 
L 455.333642 30.379573 
L 523.359554 -0.521374 
L 579.017118 127.29618 
" clip-path="url(#p07be239bb5)" style="fill: none; stroke-dasharray: 7.2,5.4; stroke-dashoffset: 0; stroke: #7fafbc; stroke-opacity: 0.95; stroke-width: 1.8"/>
   </g>
   <g id="line2d_43">
    <path d="M 22.272028 326.42001 
L 31.577972 324.734504 
" style="fill: none; stroke: #4a4a4a; stroke-linecap: square"/>
   </g>
   <g id="line2d_44">
    <path d="M 603.893576 326.42001 
L 613.19952 324.734504 
" style="fill: none; stroke: #4a4a4a; stroke-linecap: square"/>
   </g>
   <g id="patch_7">
    <path d="M 26.925 430.921395 
L 26.925 325.577257 
" style="fill: none; stroke: #4a4a4a; stroke-linejoin: miter; stroke-linecap: square"/>
   </g>
   <g id="patch_8">
    <path d="M 608.546548 430.921395 
L 608.546548 325.577257 
" style="fill: none; stroke: #4a4a4a; stroke-linejoin: miter; stroke-linecap: square"/>
   </g>
   <g id="patch_9">
    <path d="M 26.925 430.921395 
L 608.546548 430.921395 
" style="fill: none; stroke: #4a4a4a; stroke-linejoin: miter; stroke-linecap: square"/>
   </g>
   <g id="PathCollection_7">
    <g clip-path="url(#p07be239bb5)">
     <use xlink:href="#maae36a0e32" x="183.229993" y="84.924427" style="fill: #4e79a7; stroke: #222222; stroke-width: 1.3"/>
    </g>
   </g>
   <g id="PathCollection_8">
    <g clip-path="url(#p07be239bb5)">
     <use xlink:href="#m2ff1ff0735" x="579.017118" y="127.29618" style="fill: #f28e2b; stroke: #222222; stroke-width: 1.3"/>
    </g>
   </g>
   <g id="PathCollection_9">
    <g clip-path="url(#p07be239bb5)">
     <use xlink:href="#md161cc2de4" x="455.333642" y="30.379573" style="fill: #59a14f; stroke: #222222; stroke-width: 1.3"/>
    </g>
   </g>
   <g id="PathCollection_10">
    <g clip-path="url(#p07be239bb5)">
     <use xlink:href="#mf11c142580" x="523.359554" y="-0.521374" style="fill: #e15759; stroke: #222222; stroke-width: 1.3"/>
    </g>
   </g>
  </g>
 </g>
 <defs>
  <clipPath id="p4d74b45127">
   <rect x="26.925" y="7.2" width="581.621548" height="289.696379"/>
  </clipPath>
  <clipPath id="p07be239bb5">
   <rect x="26.925" y="325.577257" width="581.621548" height="105.344138"/>
  </clipPath>
 </defs>
</svg>
